<svg width="17" height="12" viewBox="0 0 17 12" fill="#13e7f5" xmlns="http://www.w3.org/2000/svg">
<path d="M9.8 11.275C9.6 11.075 9.504 10.8333 9.512 10.55C9.52 10.2667 9.62434 10.025 9.825 9.82499L12.65 6.99999H1.5C1.21667 6.99999 0.979004 6.90399 0.787004 6.71199C0.595004 6.51999 0.499337 6.28265 0.500003 5.99999C0.500003 5.71665 0.596004 5.47899 0.788004 5.28699C0.980004 5.09499 1.21734 4.99932 1.5 4.99999H12.65L9.8 2.14999C9.6 1.94999 9.5 1.71232 9.5 1.43699C9.5 1.16165 9.6 0.924321 9.8 0.724988C10 0.524988 10.2377 0.424988 10.513 0.424988C10.7883 0.424988 11.0257 0.524988 11.225 0.724988L15.8 5.29999C15.9 5.39999 15.971 5.50832 16.013 5.62499C16.055 5.74165 16.0757 5.86665 16.075 5.99999C16.075 6.13332 16.054 6.25832 16.012 6.37499C15.97 6.49165 15.8993 6.59999 15.8 6.69999L11.2 11.3C11.0167 11.4833 10.7877 11.575 10.513 11.575C10.2383 11.575 10.0007 11.475 9.8 11.275Z" fill="#13e7f5"/>
</svg>
