<?xml version="1.0" standalone="no"?>
<!DOCTYPE svg PUBLIC "-//W3C//DTD SVG 20010904//EN"
 "http://www.w3.org/TR/2001/REC-SVG-20010904/DTD/svg10.dtd">
<svg version="1.0" xmlns="http://www.w3.org/2000/svg"
 width="195.000000pt" height="62.000000pt" viewBox="0 0 195.000000 62.000000"
 preserveAspectRatio="xMidYMid meet">

<g transform="translate(0.000000,62.000000) scale(0.100000,-0.100000)"
fill="#fff" stroke="none">
<path d="M252 545 c-18 -15 -32 -32 -32 -38 0 -5 -14 -32 -31 -59 -17 -26 -29
-54 -26 -62 3 -7 -13 -37 -36 -67 -50 -67 -93 -157 -80 -170 10 -10 22 -3 136
89 65 52 68 54 82 36 8 -10 15 -35 15 -55 0 -26 8 -43 30 -64 16 -16 31 -27
33 -24 10 12 46 109 52 139 l7 35 -26 -30 c-20 -23 -25 -26 -26 -12 0 9 -4 17
-8 17 -7 0 -42 202 -42 245 0 42 -15 48 -48 20z m7 -208 c1 -27 -3 -37 -11
-34 -7 2 -28 -7 -46 -20 -18 -14 -36 -22 -39 -19 -4 3 -17 -4 -30 -16 -39 -37
-26 -4 44 109 l68 108 7 -45 c3 -25 7 -62 7 -83z"/>
<path d="M923 559 c-59 -8 -110 -36 -148 -80 -33 -40 -35 -107 -4 -135 l21
-19 -7 68 c-9 81 2 98 71 117 24 7 47 16 49 20 9 14 128 -2 165 -21 50 -26 77
-50 64 -56 -8 -2 -9 -15 -4 -38 7 -33 6 -34 -39 -53 -82 -34 -181 -66 -187
-60 -3 3 3 23 14 45 37 72 45 111 29 128 -13 13 -17 11 -33 -13 -48 -71 -86
-184 -88 -266 -3 -90 7 -112 24 -50 23 87 33 99 102 124 154 55 228 116 228
188 0 25 -5 35 -25 42 -14 5 -25 14 -25 19 0 12 -73 38 -120 44 -19 2 -58 0
-87 -4z"/>
<path d="M1342 562 c-26 -4 -76 -65 -77 -96 0 -11 -13 -46 -28 -76 -27 -55
-32 -71 -44 -140 -3 -19 -13 -46 -21 -58 -13 -20 -13 -25 -1 -33 25 -16 40
-10 93 36 29 25 56 45 59 45 6 0 0 -56 -7 -69 -3 -5 0 -14 7 -20 17 -14 85 28
142 88 21 22 43 41 47 41 4 0 5 -20 2 -44 -6 -41 7 -86 25 -86 4 0 13 25 20
56 7 31 24 88 37 127 13 39 24 74 24 78 0 18 -68 -34 -74 -55 -7 -27 -94 -121
-103 -112 -4 3 -15 -1 -25 -11 -10 -9 -20 -14 -23 -11 -6 6 42 137 57 155 5 7
8 19 6 27 -2 13 -10 12 -44 -9 -33 -20 -46 -36 -60 -76 -15 -41 -26 -55 -54
-67 -19 -9 -43 -23 -53 -31 -9 -8 -19 -12 -22 -9 -5 5 42 120 107 261 22 49
38 89 37 91 -2 1 -14 0 -27 -2z"/>
<path d="M1810 550 c-11 -11 -20 -29 -20 -40 0 -25 34 -60 58 -59 12 0 10 3
-8 10 -42 17 -53 55 -24 83 21 21 40 20 64 -4 11 -11 20 -16 20 -11 0 12 -40
41 -57 41 -7 0 -22 -9 -33 -20z"/>
<path d="M1831 508 c0 -18 3 -27 6 -20 3 9 9 10 17 3 8 -7 11 -3 10 17 0 17
-7 28 -17 30 -13 3 -17 -4 -16 -30z m29 18 c0 -3 -4 -8 -10 -11 -5 -3 -10 -1
-10 4 0 6 5 11 10 11 6 0 10 -2 10 -4z"/>
<path d="M1881 477 c-13 -21 -12 -21 5 -5 10 10 16 20 13 22 -3 3 -11 -5 -18
-17z"/>
<path d="M1785 410 c-16 -11 -37 -18 -46 -15 -15 5 -76 -33 -90 -56 -13 -22
13 -70 50 -93 46 -29 67 -54 55 -66 -5 -4 -40 -13 -79 -18 l-70 -9 60 -2 c107
-2 166 27 137 68 -7 9 -16 26 -22 39 -5 12 -13 22 -18 22 -9 0 -42 64 -42 80
0 6 7 10 15 10 8 0 15 -4 15 -10 0 -5 5 -10 12 -10 6 0 19 -7 29 -16 16 -14
18 -14 23 3 10 31 15 93 8 93 -4 0 -20 -9 -37 -20z"/>
<path d="M469 324 c-10 -3 -19 -14 -22 -25 -4 -15 -2 -19 10 -15 8 3 56 6 106
6 87 0 130 10 114 26 -8 8 -185 15 -208 8z"/>
</g>
</svg>
