<?xml version="1.0" encoding="UTF-8"?>
<!DOCTYPE svg PUBLIC "-//W3C//DTD SVG 1.1//EN" "http://www.w3.org/Graphics/SVG/1.1/DTD/svg11.dtd">
<svg xmlns="http://www.w3.org/2000/svg" version="1.1" width="225px" height="108px" style="shape-rendering:geometricPrecision; text-rendering:geometricPrecision; image-rendering:optimizeQuality; fill-rule:evenodd; clip-rule:evenodd" xmlns:xlink="http://www.w3.org/1999/xlink">
<g><path style="opacity:0.761" fill="#fefffe" d="M 46.5,22.5 C 48.1238,22.3601 49.2904,23.0267 50,24.5C 50.8441,33.2559 52.1774,41.9226 54,50.5C 55.6158,49.4552 57.2825,48.4552 59,47.5C 59.7811,48.7287 60.2811,50.062 60.5,51.5C 58.3665,56.5545 56.0331,61.5545 53.5,66.5C 51.8333,65.1667 50.1667,63.8333 48.5,62.5C 47.8511,58.3222 46.6844,54.3222 45,50.5C 39.5919,55.1196 34.0919,59.6196 28.5,64C 27.2068,64.49 25.8734,64.6567 24.5,64.5C 26.5603,56.3795 30.2269,49.0462 35.5,42.5C 34.6744,41.549 34.5078,40.549 35,39.5C 38.1306,35.5707 40.4639,31.2373 42,26.5C 43.6667,25.2668 45.1667,23.9335 46.5,22.5 Z M 43.5,34.5 C 44.6861,38.6424 45.3527,42.8091 45.5,47C 41.293,49.6085 36.9597,51.6085 32.5,53C 36.5673,47.0258 40.2339,40.8591 43.5,34.5 Z"/></g>
<g><path style="opacity:0.72" fill="#fefffe" d="M 112.5,22.5 C 118.148,22.8554 123.481,24.3554 128.5,27C 134.263,32.0178 134.43,37.5178 129,43.5C 121.682,48.8259 113.682,52.8259 105,55.5C 102.794,60.2846 101.294,65.2846 100.5,70.5C 100.132,71.91 99.2989,72.91 98,73.5C 95.8628,57.2333 99.8628,42.5667 110,29.5C 110.333,30.5 110.667,31.5 111,32.5C 111.419,31.3279 112.085,30.3279 113,29.5C 112.247,36.0884 110.081,42.255 106.5,48C 113.447,46.9629 120.113,44.7963 126.5,41.5C 126.833,40.6667 127.167,39.8333 127.5,39C 126.555,36.9115 126.555,34.9115 127.5,33C 116.915,25.4747 106.415,25.3081 96,32.5C 95.348,37.2846 95.848,41.9513 97.5,46.5C 97.1667,46.8333 96.8333,47.1667 96.5,47.5C 91.8943,44.0436 90.3943,39.3769 92,33.5C 97.0785,26.215 103.912,22.5484 112.5,22.5 Z"/></g>
<g><path style="opacity:0.743" fill="#fefffe" d="M 150.5,22.5 C 151.573,23.2506 151.74,24.2506 151,25.5C 146.258,34.7171 142.092,44.2171 138.5,54C 138.833,54.5 139.167,55 139.5,55.5C 141.541,54.7643 143.541,53.9309 145.5,53C 147.191,49.5991 148.691,46.0991 150,42.5C 152.869,40.1503 156.035,38.4836 159.5,37.5C 157.342,43.4611 155.509,49.4611 154,55.5C 160.699,53.1307 165.033,48.464 167,41.5C 169.158,40.1741 170.992,38.5075 172.5,36.5C 173.72,36.8869 174.387,37.7202 174.5,39C 171.214,47.8536 168.548,56.8536 166.5,66C 164.687,66.6144 164.353,66.2811 165.5,65C 164.5,64 163.5,63 162.5,62C 162.353,58.9545 162.52,55.7879 163,52.5C 158.483,58.1957 152.983,62.529 146.5,65.5C 144.271,63.9007 143.938,61.9007 145.5,59.5C 145.192,58.6919 144.692,58.0253 144,57.5C 141.167,60 138.333,62.5 135.5,65C 133.433,65.5356 131.599,65.0356 130,63.5C 131.158,58.7315 132.658,53.8982 134.5,49C 134.043,48.586 133.709,48.086 133.5,47.5C 135.199,42.97 137.533,38.8033 140.5,35C 139.692,34.6924 139.025,34.1924 138.5,33.5C 140.715,27.6072 144.715,23.9406 150.5,22.5 Z"/></g>
<g><path style="opacity:0.312" fill="#fefffe" d="M 194.5,29.5 C 195.833,29.5 197.167,29.5 198.5,29.5C 198.5,31.5 198.5,33.5 198.5,35.5C 193.003,35.8105 191.669,33.8105 194.5,29.5 Z"/></g>
<g><path style="opacity:0.783" fill="#fefffe" d="M 191.5,36.5 C 194.05,40.4364 193.716,44.4364 190.5,48.5C 189.278,46.0217 187.278,45.0217 184.5,45.5C 186.301,50.159 188.801,54.4924 192,58.5C 192.561,61.2981 191.394,63.1314 188.5,64C 181.833,64.6667 175.167,64.6667 168.5,64C 174.371,62.781 180.371,61.781 186.5,61C 183.703,57.8255 180.537,54.9922 177,52.5C 175.578,49.9699 175.245,47.3033 176,44.5C 178.749,42.0774 181.749,40.0774 185,38.5C 185.333,39.1667 185.667,39.8333 186,40.5C 187.812,39.0229 189.645,37.6896 191.5,36.5 Z"/></g>
<g><path style="opacity:0.675" fill="#fefffe" d="M 66.5,45.5 C 71.1785,45.3342 75.8452,45.5008 80.5,46C 83.3617,46.2704 86.0284,47.1038 88.5,48.5C 79.5164,51.5024 70.5164,52.1691 61.5,50.5C 62.0253,49.8076 62.6919,49.3076 63.5,49C 63.1667,48.6667 62.8333,48.3333 62.5,48C 63.8584,47.0656 65.1917,46.2323 66.5,45.5 Z"/></g>
<g><path style="opacity:0.618" fill="#fefffe" d="M 36.5,79.5 C 38.5902,76.8862 40.7569,76.8862 43,79.5C 43.6409,77.1868 44.9743,75.5202 47,74.5C 49.7993,75.237 49.9659,76.0703 47.5,77C 48,77.5 48.5,78 49,78.5C 52.9758,76.6185 55.1425,77.9518 55.5,82.5C 55.4496,81.1524 55.783,79.6524 56.5,78C 59.5344,78.4151 62.5344,78.5818 65.5,78.5C 64.9747,79.1924 64.3081,79.6924 63.5,80C 65.1066,81.049 65.7733,82.549 65.5,84.5C 59.7945,84.8288 54.1278,84.4954 48.5,83.5C 48,82.5 47.5,81.5 47,80.5C 46,85.8333 45,85.8333 44,80.5C 43.8992,83.4352 42.3992,84.7685 39.5,84.5C 36.1077,84.0352 35.1077,82.3685 36.5,79.5 Z M 39.5,79.5 C 40.7759,80.3864 40.7759,81.3864 39.5,82.5C 38.4376,81.5754 38.4376,80.5754 39.5,79.5 Z M 60.5,81.5 C 59.5266,81.0133 58.5266,80.5133 57.5,80C 59.1575,79.2748 60.1575,79.7748 60.5,81.5 Z"/></g>
<g><path style="opacity:0.558" fill="#fefffe" d="M 67.5,74.5 C 69.13,76.0261 69.9633,78.0261 70,80.5C 72.3333,76.5 74.6667,76.5 77,80.5C 77.4828,79.552 77.6495,78.552 77.5,77.5C 83.5,76.1667 85.8333,78.5 84.5,84.5C 83.5,84.5 82.5,84.5 81.5,84.5C 81.9059,82.8908 81.9059,81.5575 81.5,80.5C 80.5713,81.6888 80.238,83.0222 80.5,84.5C 78.8762,84.6399 77.7096,83.9733 77,82.5C 74.6667,85.1667 72.3333,85.1667 70,82.5C 69.2904,83.9733 68.1238,84.6399 66.5,84.5C 66.2529,81.0613 66.5863,77.728 67.5,74.5 Z M 72.5,79.5 C 74.4646,79.9483 74.7979,80.9483 73.5,82.5C 72.6143,81.675 72.281,80.675 72.5,79.5 Z"/></g>
<g><path style="opacity:0.557" fill="#fefffe" d="M 92.5,74.5 C 93.5,74.5 94.5,74.5 95.5,74.5C 95.5,77.8333 95.5,81.1667 95.5,84.5C 94.5,84.5 93.5,84.5 92.5,84.5C 92.5,81.1667 92.5,77.8333 92.5,74.5 Z"/></g>
<g><path style="opacity:0.721" fill="#fefffe" d="M 114.5,83.5 C 114.019,79.6509 115.686,77.6509 119.5,77.5C 119.281,76.325 119.614,75.325 120.5,74.5C 121.487,77.7683 121.82,81.1016 121.5,84.5C 119.05,84.702 116.717,84.3686 114.5,83.5 Z M 117.5,79.5 C 119.332,80.1405 119.665,81.1405 118.5,82.5C 117.614,81.675 117.281,80.675 117.5,79.5 Z"/></g>
<g><path style="opacity:0.547" fill="#fefffe" d="M 123.5,74.5 C 125.13,76.0261 125.963,78.0261 126,80.5C 126.949,77.8003 128.783,76.967 131.5,78C 134.59,81.4918 133.923,83.6585 129.5,84.5C 128.006,84.2908 126.839,83.6241 126,82.5C 125.29,83.9733 124.124,84.6399 122.5,84.5C 122.253,81.0613 122.586,77.728 123.5,74.5 Z M 128.5,79.5 C 130.465,79.9483 130.798,80.9483 129.5,82.5C 128.614,81.675 128.281,80.675 128.5,79.5 Z"/></g>
<g><path style="opacity:0.652" fill="#fefffe" d="M 139.5,74.5 C 143.333,75.8101 143.333,76.9767 139.5,78C 141,78.8333 142.167,80 143,81.5C 144.029,78.1247 146.196,76.9581 149.5,78C 150.423,80.0408 150.756,82.2075 150.5,84.5C 147.635,84.9452 145.135,84.2785 143,82.5C 141.164,84.6044 138.998,84.9377 136.5,83.5C 137.729,82.7189 139.062,82.2189 140.5,82C 135.704,79.8417 135.371,77.3417 139.5,74.5 Z M 146.5,79.5 C 148.625,80.3676 148.791,81.3676 147,82.5C 145.317,81.8235 145.15,80.8235 146.5,79.5 Z"/></g>
<g><path style="opacity:0.596" fill="#fefffe" d="M 151.5,74.5 C 152.5,74.5 153.5,74.5 154.5,74.5C 154.5,75.5 154.5,76.5 154.5,77.5C 155.5,77.5 156.5,77.5 157.5,77.5C 157.215,79.288 157.548,80.9547 158.5,82.5C 158.807,81.1125 158.807,79.4458 158.5,77.5C 159.5,77.5 160.5,77.5 161.5,77.5C 161.5,79.8333 161.5,82.1667 161.5,84.5C 158.007,84.0025 154.674,84.0025 151.5,84.5C 151.5,81.1667 151.5,77.8333 151.5,74.5 Z"/></g>
<g><path style="opacity:0.564" fill="#fefffe" d="M 170.5,79.5 C 169.167,80.8333 169.167,82.1667 170.5,83.5C 169.791,84.404 168.791,84.7373 167.5,84.5C 167.335,81.4816 167.502,78.4816 168,75.5C 168.667,74.1667 169.333,74.1667 170,75.5C 170.49,76.7932 170.657,78.1266 170.5,79.5 Z"/></g>
<g><path style="opacity:0.61" fill="#fefffe" d="M 36.5,79.5 C 34.7868,80.6354 34.1201,82.302 34.5,84.5C 33.5,84.5 32.5,84.5 31.5,84.5C 31.6567,83.1266 31.49,81.7932 31,80.5C 29.9887,81.3366 28.8221,81.67 27.5,81.5C 27.5,82.5 27.5,83.5 27.5,84.5C 26.5,84.5 25.5,84.5 24.5,84.5C 24.5,81.5 24.5,78.5 24.5,75.5C 26.5273,75.3379 28.5273,75.5045 30.5,76C 32.8888,76.7388 34.8888,77.9054 36.5,79.5 Z M 26.5,77.5 C 28.337,77.6395 28.6704,78.3061 27.5,79.5C 26.7025,79.0431 26.3691,78.3764 26.5,77.5 Z"/></g>
<g><path style="opacity:0.657" fill="#fefffe" d="M 100.5,75.5 C 101.833,75.5 103.167,75.5 104.5,75.5C 105.167,78.5 105.833,81.5 106.5,84.5C 104.857,84.5198 103.524,83.8532 102.5,82.5C 101.476,83.8532 100.143,84.5198 98.5,84.5C 99.1667,81.5 99.8333,78.5 100.5,75.5 Z"/></g>
<g><path style="opacity:0.614" fill="#fefffe" d="M 163.5,76.5 C 164.496,76.4142 165.329,76.7476 166,77.5C 165.773,79.5741 165.939,81.5741 166.5,83.5C 165.311,84.4287 163.978,84.762 162.5,84.5C 162.279,81.7212 162.612,79.0545 163.5,76.5 Z"/></g>
<g><path style="opacity:0.625" fill="#fefffe" d="M 85.5,77.5 C 90.9064,76.7353 92.9064,79.0687 91.5,84.5C 89.5,84.5 87.5,84.5 85.5,84.5C 85.5,82.1667 85.5,79.8333 85.5,77.5 Z"/></g>
<g><path style="opacity:0.76" fill="#fefffe" d="M 114.5,83.5 C 112.393,84.4682 110.059,84.8016 107.5,84.5C 107.192,82.076 107.526,79.7427 108.5,77.5C 109.833,84.1667 111.167,84.1667 112.5,77.5C 113.169,79.6309 113.835,81.6309 114.5,83.5 Z"/></g>
<g><path style="opacity:0.631" fill="#fefffe" d="M 170.5,83.5 C 170.5,82.1667 170.5,80.8333 170.5,79.5C 176.241,75.8849 178.574,77.5515 177.5,84.5C 175.05,84.702 172.717,84.3686 170.5,83.5 Z M 173.5,79.5 C 175.332,80.1405 175.665,81.1405 174.5,82.5C 173.614,81.675 173.281,80.675 173.5,79.5 Z"/></g>
<g><path style="opacity:0.564" fill="#fefffe" d="M 178.5,77.5 C 183.388,76.6156 185.888,78.6156 186,83.5C 186.5,83 187,82.5 187.5,82C 185.991,78.3307 187.324,76.8307 191.5,77.5C 190.167,79.8333 190.167,82.1667 191.5,84.5C 188.5,84.5 185.5,84.5 182.5,84.5C 182.167,79.1667 181.833,79.1667 181.5,84.5C 180.5,84.5 179.5,84.5 178.5,84.5C 178.5,82.1667 178.5,79.8333 178.5,77.5 Z"/></g>
</svg>
